<?xml version="1.0" standalone="no"?>
<!DOCTYPE svg PUBLIC "-//W3C//DTD SVG 20010904//EN"
 "http://www.w3.org/TR/2001/REC-SVG-20010904/DTD/svg10.dtd">
<svg version="1.0" xmlns="http://www.w3.org/2000/svg"
 width="700.000000pt" height="700.000000pt" viewBox="0 0 700.000000 700.000000"
 preserveAspectRatio="xMidYMid meet">
<metadata>
Created by potrace 1.14, written by Peter Selinger 2001-2017
</metadata>
<g transform="translate(0.000000,700.000000) scale(0.100000,-0.100000)"
fill="#000000" stroke="none">
<path d="M4621 6129 c-486 -56 -876 -450 -941 -949 -12 -98 -13 -461 0 -571
19 -166 87 -351 181 -491 23 -35 87 -108 143 -163 155 -153 324 -243 536 -287
86 -18 126 -19 405 -15 272 4 319 7 382 24 310 88 551 278 689 546 106 205
124 302 124 669 0 242 -3 293 -20 379 -94 461 -471 805 -940 859 -102 12 -455
11 -559 -1z m753 -898 l26 -24 0 -342 0 -342 -26 -24 -26 -24 -356 -3 c-234
-2 -365 1 -382 8 -16 7 -71 77 -152 195 -71 101 -128 186 -128 189 0 8 219
327 244 355 12 13 30 27 41 32 11 4 181 7 377 6 l356 -2 26 -24z"/>
<path d="M4765 5050 l-29 -31 77 -77 77 -77 -77 -77 -77 -78 29 -30 29 -30 61
58 c33 32 70 66 83 77 l23 19 77 -77 78 -77 29 30 29 30 -77 78 -77 77 77 77
77 77 -29 31 -29 30 -76 -75 c-41 -41 -80 -75 -85 -75 -5 0 -44 34 -85 75
l-76 75 -29 -30z"/>
<path d="M1755 6123 c-417 -63 -769 -382 -883 -802 -26 -95 -26 -101 -27 -431
0 -334 0 -335 28 -435 64 -238 208 -453 396 -596 91 -69 266 -154 386 -186 99
-27 103 -27 420 -27 316 0 321 0 420 27 119 32 293 116 386 186 188 143 332
359 396 596 27 99 27 103 28 425 0 282 -2 336 -19 405 -92 397 -388 706 -782
816 -73 20 -104 22 -399 24 -176 2 -333 1 -350 -2z m499 -579 c171 -44 313
-158 390 -311 l26 -53 -128 0 c-128 0 -129 0 -140 25 -23 49 -92 112 -155 141
-73 33 -205 44 -284 25 -114 -29 -223 -112 -271 -207 -55 -108 -71 -283 -37
-409 54 -201 233 -327 445 -312 109 7 184 39 247 103 28 29 54 62 58 74 6 19
14 20 136 20 l130 0 -33 -62 c-19 -38 -63 -94 -108 -139 -122 -123 -263 -179
-455 -179 -182 0 -326 54 -445 167 -137 129 -198 262 -207 453 -6 135 12 227
69 339 92 183 266 306 483 342 67 11 204 2 279 -17z"/>
<path d="M4658 3320 c-446 -40 -827 -364 -945 -805 -25 -95 -27 -114 -31 -390
-4 -314 3 -395 45 -530 53 -170 143 -317 272 -445 181 -181 390 -281 644 -311
135 -16 558 -6 649 15 410 95 717 391 825 794 25 92 27 113 31 387 4 331 -4
407 -62 570 -122 340 -399 595 -746 686 -137 36 -452 49 -682 29z m662 -1090
l0 -70 -385 0 -385 0 0 70 0 70 385 0 385 0 0 -70z m0 -330 l0 -70 -385 0
-385 0 0 70 0 70 385 0 385 0 0 -70z"/>
<path d="M1798 3300 c-158 -19 -341 -88 -479 -180 -88 -60 -219 -189 -280
-277 -101 -146 -168 -328 -188 -506 -14 -124 -14 -430 0 -554 28 -258 141
-486 327 -665 184 -176 389 -271 647 -299 154 -17 538 -5 645 20 207 48 356
130 512 279 184 177 296 401 327 657 14 116 14 454 0 570 -31 256 -143 480
-327 657 -102 97 -169 144 -295 203 -106 50 -216 81 -337 95 -98 11 -454 11
-552 0z m365 -1540 c38 -43 37 -98 -2 -142 -53 -60 -148 -37 -172 41 -33 110
97 186 174 101z"/>
</g>
</svg>
