<?xml version="1.0" standalone="no"?>
<!DOCTYPE svg PUBLIC "-//W3C//DTD SVG 20010904//EN"
 "http://www.w3.org/TR/2001/REC-SVG-20010904/DTD/svg10.dtd">
<svg version="1.0" xmlns="http://www.w3.org/2000/svg"
 width="700.000000pt" height="700.000000pt" viewBox="0 0 700.000000 700.000000"
 preserveAspectRatio="xMidYMid meet">
<metadata>
Created by potrace 1.14, written by Peter Selinger 2001-2017
</metadata>
<g transform="translate(0.000000,700.000000) scale(0.100000,-0.100000)"
fill="#000000" stroke="none">
<path d="M1825 6130 c-252 -22 -488 -133 -670 -315 -136 -136 -231 -303 -283
-493 -24 -92 -26 -112 -30 -387 -4 -321 3 -397 49 -540 57 -177 132 -299 268
-436 170 -169 352 -264 585 -304 126 -21 538 -21 667 1 399 68 723 350 848
739 47 144 53 220 48 546 -4 282 -5 298 -31 388 -108 382 -400 673 -771 771
-140 36 -443 50 -680 30z m390 -500 c88 -13 204 -51 273 -90 l52 -30 0 -95 0
-95 -68 50 c-132 96 -280 134 -434 112 -145 -21 -259 -97 -322 -213 -91 -165
-90 -492 1 -662 133 -248 505 -290 771 -87 l52 40 0 -94 0 -95 -52 -29 c-238
-134 -554 -131 -762 9 -116 77 -200 197 -241 345 -26 90 -32 329 -11 435 33
168 129 317 262 406 120 80 309 117 479 93z"/>
<path d="M4640 6133 c-450 -48 -818 -371 -937 -821 -23 -89 -26 -119 -30 -355
-7 -366 12 -493 102 -684 59 -126 106 -193 203 -295 189 -197 419 -305 701
-329 159 -14 478 -5 590 16 407 78 738 392 842 798 52 205 51 660 -2 862 -51
195 -137 344 -283 491 -56 55 -128 118 -161 139 -145 95 -304 154 -470 174
-82 10 -472 13 -555 4z m705 -887 c18 -8 38 -23 44 -34 7 -14 11 -135 11 -355
l0 -334 -26 -24 -26 -24 -368 0 c-353 0 -369 1 -390 20 -12 11 -76 98 -142
194 l-119 175 102 150 c128 190 164 234 192 239 12 2 172 5 355 6 267 1 339
-2 367 -13z"/>
<path d="M4765 5050 l-29 -31 77 -77 77 -77 -77 -77 -77 -78 29 -30 28 -29 83
74 82 75 79 -74 80 -75 32 27 32 27 -81 80 -80 80 77 77 77 78 -29 30 -29 30
-78 -77 -77 -77 -23 19 c-13 11 -50 45 -83 77 l-61 58 -29 -30z"/>
<path d="M4637 3319 c-408 -43 -768 -335 -903 -733 -46 -135 -54 -209 -54
-508 0 -242 3 -293 20 -379 46 -222 153 -415 318 -571 132 -124 297 -216 479
-266 97 -26 102 -26 418 -26 315 0 322 0 418 26 111 31 256 96 346 157 206
140 369 373 439 628 27 97 27 100 27 433 -1 331 -1 336 -27 432 -103 376 -385
666 -752 773 -47 13 -131 29 -187 35 -116 12 -427 11 -542 -1z m801 -1176 l-3
-58 -452 -3 -453 -2 0 60 0 60 455 0 456 0 -3 -57z m0 -295 l3 -58 -456 0
-455 0 0 60 0 60 453 -2 452 -3 3 -57z"/>
<path d="M1825 3303 c-92 -11 -168 -27 -235 -49 -399 -134 -685 -483 -740
-904 -12 -97 -12 -483 0 -580 23 -175 104 -382 199 -510 162 -216 395 -368
651 -425 101 -23 506 -32 650 -15 184 21 337 76 484 174 160 107 284 251 371
431 94 193 115 311 115 640 -1 320 -23 442 -114 630 -165 337 -474 559 -841
604 -82 10 -468 13 -540 4z m390 -1618 l0 -90 -72 -3 -73 -3 0 96 0 96 73 -3
72 -3 0 -90z"/>
</g>
</svg>
